# xmcd
#
# Track frame offsets: 
#        182
#        17335
#        34387
#        48220
#        66965
#        85620
#        93572
#        109497
#        129772
#        144305
#        159765
#        182770
#        202885
#        214160
#        227577
#        244042
#        258800
#        292532
#        307935
#        326545
#
# Disc length: 4450 seconds
#
# Revision: 5
# Processed by: cddbd v1.4PL0 Copyright (c) Steve Scherf et al.
# Submitted via: ExactAudioCopy v0.90b2
#
DISCID=fa116014
DTITLE=The Jon Spencer Blues Explosion - Xtra-Acme USA
DYEAR=1998
DGENRE=Rock
TTITLE0=Wait a Minute
TTITLE1=Get Down Lover
TTITLE2=Confused
TTITLE3=Magical Colors (31 Flavors)
TTITLE4=Not Yet
TTITLE5=Get Old
TTITLE6=Bacon
TTITLE7=Blue Green Olga (Remix)
TTITLE8=Heavy (Remix)
TTITLE9=Lap Dance
TTITLE10=Leave Me Alone So I Can Rock Again
TTITLE11=Soul Trance
TTITLE12=Electricity
TTITLE13=New Year
TTITLE14=Lovin' Machine (Automator)
TTITLE15=Chowder
TTITLE16=T.A.T.B. (For The Saints and Sinners Remix)
TTITLE17=Hell
TTITLE18=Calvin (Zebra Ranch)
TTITLE19=Xtra
EXTD=
EXTT0=
EXTT1=
EXTT2=
EXTT3=
EXTT4=
EXTT5=
EXTT6=
EXTT7=
EXTT8=
EXTT9=
EXTT10=
EXTT11=
EXTT12=
EXTT13=
EXTT14=
EXTT15=
EXTT16=
EXTT17=
EXTT18=
EXTT19=
PLAYORDER=
